<?xml version="1.0" encoding="UTF-8" standalone="no"?>
<!-- Created with sK1/UniConvertor (http://sk1project.org/) -->

<svg
   xmlns:dc="http://purl.org/dc/elements/1.1/"
   xmlns:cc="http://creativecommons.org/ns#"
   xmlns:rdf="http://www.w3.org/1999/02/22-rdf-syntax-ns#"
   xmlns:svg="http://www.w3.org/2000/svg"
   xmlns="http://www.w3.org/2000/svg"
   xmlns:sodipodi="http://sodipodi.sourceforge.net/DTD/sodipodi-0.dtd"
   xmlns:inkscape="http://www.inkscape.org/namespaces/inkscape"
   width="262.84375"
   height="262.84375"
   viewBox="0 0 210.27501 210.27499"
   id="svg2985"
   version="1.1"
   inkscape:version="0.48.2 r9819"
   sodipodi:docname="Fantastic Four logo (blue and white).svg"
   style="fill-rule:evenodd">
  <metadata
     id="metadata3003">
    <rdf:RDF>
      <cc:Work
         rdf:about="">
        <dc:format>image/svg+xml</dc:format>
        <dc:type
           rdf:resource="http://purl.org/dc/dcmitype/StillImage" />
        <dc:title></dc:title>
      </cc:Work>
    </rdf:RDF>
  </metadata>
  <defs
     id="defs3001" />
  <sodipodi:namedview
     pagecolor="#ffffff"
     bordercolor="#666666"
     borderopacity="1"
     objecttolerance="10"
     gridtolerance="10"
     guidetolerance="10"
     inkscape:pageopacity="0"
     inkscape:pageshadow="2"
     inkscape:window-width="1600"
     inkscape:window-height="837"
     id="namedview2999"
     showgrid="false"
     fit-margin-top="0"
     fit-margin-left="0"
     fit-margin-right="0"
     fit-margin-bottom="0"
     inkscape:zoom="2.1551508"
     inkscape:cx="27.852829"
     inkscape:cy="128.80053"
     inkscape:window-x="-8"
     inkscape:window-y="-8"
     inkscape:window-maximized="1"
     inkscape:current-layer="svg2985" />
  <path
     style="fill:#000000;stroke:none"
     d="M 105.125,-7.7929683e-6 C 47.213002,-7.7929683e-6 0,47.212992 0,105.125 c 0,57.912 47.213002,105.15 105.125,105.15 57.91201,0 105.15001,-47.238 105.15001,-105.15 C 210.27501,47.212992 163.03701,-7.7929683e-6 105.125,-7.7929683e-6 z m 0,5.6750001929683 c 54.78101,0 99.47501,44.6679996 99.47501,99.4500076 0,54.782 -44.694,99.475 -99.47501,99.475 -54.781998,0 -99.4499998,-44.693 -99.4499998,-99.475 0,-54.782008 44.6680018,-99.4500076 99.4499998,-99.4500076 z m 0,7.5000006 c -50.656998,0 -91.95,41.292999 -91.95,91.950007 0,50.656 41.293002,91.975 91.95,91.975 12.533,0 24.496,-2.527 35.40001,-7.1 l 0,-46.2 -95.775008,0 0,-11.6 L 151.30001,25.649993 c -13.583,-7.93 -29.36601,-12.475 -46.17501,-12.475 z m 58.65001,21.2 0,87.075007 31.875,0 c 0.956,-5.294 1.45,-10.763 1.45,-16.325 0,-28.399005 -12.988,-53.858011 -33.325,-70.750007 z m -23.25,22.775001 -66.600007,64.300006 66.600007,0 0,-64.300006 z m 23.25,86.650006 0,32.075 c 10.455,-8.683 18.971,-19.627 24.775,-32.075 l -24.775,0 z"
     id="path2994"
     inkscape:connector-curvature="0" />
</svg>
